<?xml version="1.0" encoding="UTF-8"?>
<svg id="Calque_1" data-name="Calque 1" xmlns="http://www.w3.org/2000/svg" viewBox="0 0 1260.29 393">
  <defs>
    <style>
      .cls-1 {
        fill: #9d563b;
      }
    </style>
  </defs>
  <g>
    <path class="cls-1" d="M490.28,292.78c-10.91-10.73-18.5-21.44-22.78-32.17v45.56h-53.6V.64h53.6V119.1c2.5,0,7.14-3.03,13.94-9.12,7.85-7.85,16.16-14.2,24.92-19.02,8.76-4.82,19.92-7.24,33.5-7.24,26.45,0,46.72,10.36,60.84,31.08,14.11,20.74,21.18,48.07,21.18,82.01,0,19.67-3.14,38-9.39,54.97-6.25,16.97-15.73,30.73-28.41,41.27-12.68,10.53-27.96,15.81-45.83,15.81-21.09,0-37.08-5.37-47.97-16.08Zm64.59-34.59c8.92-18.04,13.39-39.74,13.39-65.13,0-23.93-3.94-44.3-11.79-61.09-7.86-16.79-19.12-25.19-33.78-25.19-6.78,0-12.6,1.16-17.42,3.47-4.82,2.33-10.45,5.65-16.88,9.92-8.22,6.43-15.19,9.64-20.91,9.64v110.98c5.71,15.01,13.04,26.17,21.98,33.5,8.93,7.33,18.04,10.99,27.34,10.99,16.43,0,29.12-9.03,38.06-27.09Z"/>
    <path class="cls-1" d="M680.3,293.31c-16.81-10.36-29.4-23.84-37.79-40.46-8.41-16.62-12.6-34.57-12.6-53.87s4.36-38.78,13.13-56.3c8.75-17.49,21.98-31.71,39.66-42.6,17.69-10.91,39.04-16.36,64.06-16.36s44.3,5.19,61.1,15.55c16.79,10.36,29.39,23.84,37.79,40.46,8.4,16.62,12.6,34.57,12.6,53.87s-4.37,38.78-13.13,56.3c-8.76,17.49-21.98,31.71-39.66,42.6-17.69,10.91-39.05,16.36-64.06,16.36s-44.31-5.17-61.1-15.55Zm90.05-15.55c11.8-11.78,20.72-26.96,26.81-45.54,6.07-18.58,9.12-37.54,9.12-56.84,0-22.14-4.02-40.72-12.06-55.73-8.05-15.03-19.56-22.53-34.58-22.53-16.08,0-30.01,5.91-41.81,17.69-11.79,11.8-20.72,27-26.8,45.56-6.09,18.58-9.12,37.54-9.12,56.82,0,22.16,4.02,40.74,12.06,55.75,8.05,15.01,19.56,22.51,34.58,22.51,16.08,0,30.01-5.89,41.8-17.69Z"/>
    <path class="cls-1" d="M927.94,86.4v72.37c7.14-22.16,14.73-38.24,22.78-48.25,8.04-10.01,18.31-16.53,30.82-19.56,12.51-3.03,31.44-4.56,56.82-4.56v53.59c-30.37,0-51.73,.63-64.06,1.88-12.32,1.27-21.98,4.56-28.94,9.92-6.97,5.37-12.78,14.66-17.42,27.88v125.96h-53.6V86.4h53.6Z"/>
    <path class="cls-1" d="M1105.38,86.4v209.04c5.35,0,8.84-4.54,10.45-13.65,1.61-9.12,2.77-23.86,3.49-44.23,1.42-30.01,3.93-55.38,7.5-76.12,3.57-20.72,11.53-38.85,23.85-54.4,12.33-15.55,30.99-23.32,56.01-23.32,35.74,0,53.61,22.88,53.61,68.62,0,15.01-.89,30.91-2.68,47.7-1.43,19.3-2.15,34.83-2.15,46.63,0,19.3,1.61,39.13,4.83,59.5h-53.61c-1.07-8.22-1.6-16.08-1.6-23.58,0-17.51,2.15-33.15,6.43-46.92,4.29-13.74,10.36-28.86,18.22-45.28,5.71-13.22,9.91-23.6,12.6-31.1s4.02-15.36,4.02-23.58c0-6.78-1.7-11.89-5.09-15.29-3.4-3.38-8.31-5.08-14.74-5.08-12.51,0-22.33,4.1-29.48,12.32-7.15,8.22-12.52,18.5-16.09,30.82-3.58,12.35-7.15,28.51-10.72,48.51-3.94,22.18-7.86,39.68-11.79,52.54-3.94,12.87-10.1,23.86-18.5,32.96-8.4,9.12-19.92,13.68-34.57,13.68h-53.6V86.4h53.6Z"/>
  </g>
  <polygon class="cls-1" points="708.86 393 700.09 391.21 779.33 0 788.1 1.79 708.86 393"/>
  <g>
    <path class="cls-1" d="M167.85,85.84C167.85,46.88,149.56,.43,62.48,.43c-3.55,0-11.49,.15-20.73,.32C28.9,1,13.51,1.28,3.86,1.28H0V306.31H11.98V172.53H78.08l109.26,132.36,1.16,1.41h15.97L92.04,170.31c44.95-10.54,75.8-44.52,75.8-84.47ZM11.16,159.92V11.89c14.91-.36,42.22-.74,50.29-.74,62.52,0,94.22,24.67,94.22,73.34,0,44.47-44.93,75.44-85.26,75.44H11.16Z"/>
    <path class="cls-1" d="M302.01,86.93c-63.93,0-103.65,41.96-103.65,109.51s45.23,109.53,109.98,109.53c30.67,0,60.16-12.89,76.93-33.63l2.32-2.87-8.42-8.49-2.9,3.33c-15.54,17.85-41.56,28.91-67.93,28.91-58.65,0-95.56-37.11-97.17-97.18h184.53v-4.12c0-1.71,.11-3.31,.21-4.92,.12-1.79,.24-3.57,.24-5.48,0-55.7-38.72-94.59-94.15-94.59Zm-90.56,96.36c4.8-51.7,38.47-83.61,88.76-83.61,24.74,0,45.62,7.93,60.39,22.93,14.57,14.82,22.42,35.72,22.82,60.68H211.44Z"/>
  </g>
</svg>