<?xml version="1.0" encoding="utf-8"?>
<!-- Generator: Adobe Illustrator 27.0.0, SVG Export Plug-In . SVG Version: 6.00 Build 0)  -->
<svg version="1.1" id="Calque_1" xmlns="http://www.w3.org/2000/svg" xmlns:xlink="http://www.w3.org/1999/xlink" x="0px" y="0px"
	 viewBox="0 0 1260.3 393" style="enable-background:new 0 0 1260.3 393;" xml:space="preserve">
<style type="text/css">
	.st0{fill:#A5461B;}
	.st1{fill:#9D563B;}
</style>
<g>
	<path class="st0" d="M490.3,292.8c-10.9-10.7-18.5-21.4-22.8-32.2v45.6h-53.6V0.6h53.6v118.5c2.5,0,7.1-3,13.9-9.1
		c7.9-7.8,16.2-14.2,24.9-19c8.8-4.8,19.9-7.2,33.5-7.2c26.5,0,46.7,10.4,60.8,31.1c14.1,20.7,21.2,48.1,21.2,82
		c0,19.7-3.1,38-9.4,55s-15.7,30.7-28.4,41.3c-12.7,10.5-28,15.8-45.8,15.8C517.2,308.9,501.2,303.5,490.3,292.8z M554.9,258.2
		c8.9-18,13.4-39.7,13.4-65.1c0-23.9-3.9-44.3-11.8-61.1c-7.9-16.8-19.1-25.2-33.8-25.2c-6.8,0-12.6,1.2-17.4,3.5
		c-4.8,2.3-10.5,5.7-16.9,9.9c-8.2,6.4-15.2,9.6-20.9,9.6v111c5.7,15,13,26.2,22,33.5c8.9,7.3,18,11,27.3,11
		C533.2,285.3,545.9,276.2,554.9,258.2L554.9,258.2z"/>
	<path class="st0" d="M680.3,293.3c-16.8-10.4-29.4-23.8-37.8-40.5c-8.4-16.6-12.6-34.6-12.6-53.9s4.4-38.8,13.1-56.3
		c8.8-17.5,22-31.7,39.7-42.6c17.7-10.9,39-16.4,64.1-16.4s44.3,5.2,61.1,15.6c16.8,10.4,29.4,23.8,37.8,40.5
		c8.4,16.6,12.6,34.6,12.6,53.9s-4.4,38.8-13.1,56.3c-8.8,17.5-22,31.7-39.7,42.6c-17.7,10.9-39,16.4-64.1,16.4
		S697.1,303.7,680.3,293.3z M770.3,277.8c11.8-11.8,20.7-27,26.8-45.5c6.1-18.6,9.1-37.5,9.1-56.8c0-22.1-4-40.7-12.1-55.7
		c-8-15-19.6-22.5-34.6-22.5c-16.1,0-30,5.9-41.8,17.7c-11.8,11.8-20.7,27-26.8,45.6c-6.1,18.6-9.1,37.5-9.1,56.8
		c0,22.2,4,40.7,12.1,55.8c8,15,19.6,22.5,34.6,22.5C744.6,295.5,758.6,289.6,770.3,277.8z"/>
	<path class="st0" d="M927.9,86.4v72.4c7.1-22.2,14.7-38.2,22.8-48.2c8-10,18.3-16.5,30.8-19.6s31.4-4.6,56.8-4.6V140
		c-30.4,0-51.7,0.6-64.1,1.9c-12.3,1.3-22,4.6-28.9,9.9c-7,5.4-12.8,14.7-17.4,27.9v126h-53.6V86.4H927.9z"/>
	<path class="st0" d="M1105.4,86.4v209c5.3,0,8.8-4.5,10.4-13.6c1.6-9.1,2.8-23.9,3.5-44.2c1.4-30,3.9-55.4,7.5-76.1
		c3.6-20.7,11.5-38.8,23.8-54.4c12.3-15.6,31-23.3,56-23.3c35.7,0,53.6,22.9,53.6,68.6c0,15-0.9,30.9-2.7,47.7
		c-1.4,19.3-2.2,34.8-2.2,46.6c0,19.3,1.6,39.1,4.8,59.5h-53.6c-1.1-8.2-1.6-16.1-1.6-23.6c0-17.5,2.2-33.1,6.4-46.9
		c4.3-13.7,10.4-28.9,18.2-45.3c5.7-13.2,9.9-23.6,12.6-31.1s4-15.4,4-23.6c0-6.8-1.7-11.9-5.1-15.3c-3.4-3.4-8.3-5.1-14.7-5.1
		c-12.5,0-22.3,4.1-29.5,12.3s-12.5,18.5-16.1,30.8c-3.6,12.4-7.2,28.5-10.7,48.5c-3.9,22.2-7.9,39.7-11.8,52.5
		c-3.9,12.9-10.1,23.9-18.5,33c-8.4,9.1-19.9,13.7-34.6,13.7h-53.6V86.4H1105.4L1105.4,86.4z"/>
</g>
<polygon class="st1" points="708.9,393 700.1,391.2 779.3,0 788.1,1.8 "/>
<g>
	<path class="st0" d="M167.9,85.8c0-39-18.3-85.4-105.4-85.4c-3.5,0-11.5,0.2-20.7,0.3C28.9,1,13.5,1.3,3.9,1.3H0v305h12V172.5h66.1
		l109.3,132.4l1.2,1.4h16L92,170.3C137,159.8,167.8,125.8,167.9,85.8L167.9,85.8z M11.2,159.9v-148c14.9-0.4,42.2-0.7,50.3-0.7
		c62.5,0,94.2,24.7,94.2,73.3c0,44.5-44.9,75.4-85.3,75.4L11.2,159.9L11.2,159.9z"/>
	<path class="st0" d="M302,86.9c-63.9,0-103.6,42-103.6,109.5S243.6,306,308.3,306c30.7,0,60.2-12.9,76.9-33.6l2.3-2.9l-8.4-8.5
		l-2.9,3.3c-15.5,17.9-41.6,28.9-67.9,28.9c-58.6,0-95.6-37.1-97.2-97.2h184.5v-4.1c0-1.7,0.1-3.3,0.2-4.9c0.1-1.8,0.2-3.6,0.2-5.5
		C396.1,125.8,357.4,86.9,302,86.9L302,86.9z M211.5,183.3c4.8-51.7,38.5-83.6,88.8-83.6c24.7,0,45.6,7.9,60.4,22.9
		c14.6,14.8,22.4,35.7,22.8,60.7H211.5L211.5,183.3z"/>
</g>
</svg>
