<?xml version="1.0" encoding="UTF-8"?><svg id="Calque_2" xmlns="http://www.w3.org/2000/svg" viewBox="0 0 62.5 29.32"><defs><style>.cls-1{fill:#a5461b;}</style></defs><path class="cls-1" d="M10.37,0H1.13C.51,0,0,.51,0,1.13s.51,1.13,1.13,1.13H9.25V27.05H1.13c-.63,0-1.13,.51-1.13,1.13s.51,1.13,1.13,1.13H10.37c.63,0,1.15-.51,1.15-1.15V1.15c0-.63-.51-1.15-1.15-1.15Z"/><path class="cls-1" d="M14.93,7.07c4.12-.1,8.37-.12,8.91-.02,.33,.16,1.34,1.16,2.08,1.89,2.47,2.46,4.35,4.2,6.08,4.2h9.25l1.15,1.4c.71-.23,1.48-.51,2.27-.81l-2-2.44c-.22-.27-.54-.42-.89-.42h-9.78c-.92,0-3.24-2.3-4.48-3.54-1.58-1.56-2.37-2.32-3.14-2.48-1.07-.21-6.81-.11-9.51-.05-.63,.01-1.12,.54-1.1,1.16,.02,.62,.54,1.12,1.16,1.1Z"/><path class="cls-1" d="M59.89,9.54c-1.24-.44-2.6-.34-3.79,.19-3.94,1.75-14.93,6.69-17.69,6.69-3.25,0-8.52-.7-10.8-1.03-.62-.09-1.18,.34-1.28,.95h0c-.1,.63,.33,1.21,.96,1.3,2.33,.34,7.69,1.05,11.12,1.05,4.14,0,16.03-5.68,19.03-7.15,.2-.1,.43-.13,.65-.1,.27,.04,.57,.1,.86,.18,.8,.23,1.06,1.25,.49,1.85-3.28,3.43-15.46,11.93-20.35,12.13-3.69,.15-10.4-2.57-14.85-4.37-3.2-1.29-4.78-1.91-5.64-1.91h-3.7c-.63,0-1.13,.51-1.13,1.13s.51,1.13,1.13,1.13h3.69c.53,.03,2.8,.94,4.79,1.75,4.76,1.92,11.23,4.54,15.42,4.54,.13,0,.25,0,.37,0,5.6-.22,18.82-9.25,22.28-13.28,.79-.92,1.1-1.59,1.03-2.23-.17-1.51-1.33-2.37-2.6-2.82Z"/></svg>