<svg xmlns="http://www.w3.org/2000/svg" xmlns:xlink="http://www.w3.org/1999/xlink" width="430.769" height="77.101" viewBox="0 0 430.769 77.101">
  <defs>
    <clipPath id="clip-path">
      <rect id="Rectangle_11" data-name="Rectangle 11" width="75.686" height="28.112" fill="none" stroke="#10212a" stroke-width="1"/>
    </clipPath>
  </defs>
  <g id="Groupe_223" data-name="Groupe 223" transform="translate(-4902 -3426)">
    <path id="Reparation_2" data-name="Reparation 2" d="M100.158,34.767,90.091,13.453a.829.829,0,0,0,.077-.436.906.906,0,0,0-.641-.8L50.387.038a.962.962,0,0,0-.539,0L11.067,12.222h-.026a.067.067,0,0,0-.051.026,1.218,1.218,0,0,0-.218.128c-.026.026-.051.038-.064.064a.782.782,0,0,0-.154.205c0,.013-.026.026-.038.038L.089,34.767a.909.909,0,0,0,.4,1.193l9.952,5.335V55.158a.892.892,0,0,0,.475.8L49.694,76.985a.881.881,0,0,0,.872,0L89.347,55.953a.892.892,0,0,0,.475-.8V41.295l9.952-5.335a.921.921,0,0,0,.4-1.193ZM50.117,1.86,86.808,13.273,50.117,31.381,13.76,13.273Zm-37.871,40.4,25.559,13.7a.858.858,0,0,0,.423.1.91.91,0,0,0,.8-.462L46.95,41.526a.913.913,0,1,0-1.59-.9l-7.489,13.3L2.1,34.767l9.657-20.442L49.207,32.972V74.651L12.234,54.606V42.257Zm50.118,11.67-7.489-13.3a.913.913,0,0,0-1.59.9L61.21,55.594a.91.91,0,0,0,.8.462.98.98,0,0,0,.423-.1l25.559-13.7v12.35L51.015,74.651V32.959L88.527,14.453l9.593,20.314L62.352,53.94Z" transform="translate(5066.151 3426)" fill="#a5461b"/>
    <path id="Réparation_3" data-name="Réparation 3" d="M51.169,12.773C51.169,5.733,46.885,0,41.6,0H12.221a.92.92,0,0,0-.782.436L8.822,4.873A.906.906,0,0,0,9.6,6.246h3.719V21.827C11.413,23.507,2.256,32.3,2.256,45.988c0,.539.013,1.064.051,1.577a12.5,12.5,0,0,1-1.949,3.95,1.815,1.815,0,0,0,.09,2.27,10.607,10.607,0,0,1,2.3,5.848,1.823,1.823,0,0,0,3.411.667,27.215,27.215,0,0,0,7.169,7.913v4.553a.9.9,0,0,0,.911.9H35.767a.9.9,0,0,0,.911-.9v-4.1c2.167-1.4,10.888-7.887,10.888-21.366a33.835,33.835,0,0,0-3.347-14.427c1.231-2.411,6.951-13.9,6.951-20.1ZM4.706,58.4c-.064.333-.115.68-.154,1.026A12.345,12.345,0,0,0,1.82,52.593a12.9,12.9,0,0,0,.911-1.385,13.36,13.36,0,0,0,1.116-2.5,8.156,8.156,0,0,0,.256-.846c.013-.026.026-.038.026-.064h0c.026-.1.051-.192.077-.295a17.221,17.221,0,0,0,.346-1.731,14.941,14.941,0,0,0,2.732,6.823,9.375,9.375,0,0,0-1.257,1.872c-.115.205-.218.423-.321.641s-.192.41-.269.628c-.013.026-.013.038-.026.064a12.393,12.393,0,0,0-.462,1.475c-.038.141-.077.282-.1.423a.154.154,0,0,1-.026.1c-.038.192-.09.4-.115.6ZM45.757,47.3A23.52,23.52,0,0,1,35.343,67.354a.921.921,0,0,0-.462.8v3.706H15.145V67.726a.894.894,0,0,0-.423-.757,25.879,25.879,0,0,1-7.951-9.426,9.133,9.133,0,0,1,1.9-3.758,1.814,1.814,0,0,0,.077-2.27,13.319,13.319,0,0,1-2.4-6.015,1.809,1.809,0,0,0-1.8-1.552,1.1,1.1,0,0,0-.41.051C5.065,31.086,14.7,23.033,14.811,22.943a.948.948,0,0,0,.333-.705V5.335a.914.914,0,0,0-.911-.911H11.195l1.539-2.616H41.6c3.745,0,7.746,4.412,7.746,10.965,0,5.027-4.309,14.338-6.143,18.07a41.309,41.309,0,0,0-2.539-4.117,15.668,15.668,0,0,1,1.667-2.3,1.8,1.8,0,0,0,.154-2.167c1.654-3.514,3.386-8.272,2.334-11.26a8.37,8.37,0,0,0-9.2-5.579.91.91,0,0,0-.769.9V7.977A1.784,1.784,0,0,0,33.727,9.4a28.041,28.041,0,0,1-5.091,12.76,1.814,1.814,0,0,0,.077,2.27c2.732,3.168,4.412,7.413,5,12.606a1.82,1.82,0,0,0,3.616,0,25.948,25.948,0,0,1,2.334-8.5C42.551,32.895,45.757,39.486,45.757,47.3Zm-4.476-26.79A28.815,28.815,0,0,1,37.318,9.4a1.767,1.767,0,0,0-.641-1.129v-1.1A6.457,6.457,0,0,1,43.1,11.606c.731,2.1-.41,5.72-1.821,8.9Zm-4.6-5.8a26.987,26.987,0,0,0,3.706,7.707,8.808,8.808,0,0,0,.577.834,20.524,20.524,0,0,0-2.475,3.591,27.394,27.394,0,0,0-2.962,9.99c-.628-5.566-2.437-10.106-5.438-13.581a28.222,28.222,0,0,0,4.771-10.26,33.074,33.074,0,0,0,.667-3.322A33.655,33.655,0,0,0,36.677,14.71Z" transform="translate(5281.601 3426.026)" fill="#a5461b"/>
    <path id="Réparation1" d="M48.912,12.786C48.912,5.861,44.526,0,39.345,0H9.965a.9.9,0,0,0-.782.449L6.566,4.873a.891.891,0,0,0,0,.911.921.921,0,0,0,.8.462H11.08V21.827C9.157,23.52,0,32.318,0,46A27.177,27.177,0,0,0,11.067,68.226v4.553a.914.914,0,0,0,.911.911H33.51a.914.914,0,0,0,.911-.911v-4.1c2.167-1.4,10.888-7.874,10.888-21.366a34.025,34.025,0,0,0-3.347-14.427c1.231-2.411,6.951-13.9,6.951-20.083ZM43.5,47.309A23.52,23.52,0,0,1,33.087,67.367a.916.916,0,0,0-.462.782v3.706H12.889V67.726a.9.9,0,0,0-.423-.769A25.943,25.943,0,0,1,1.808,45.988C1.808,32,12.453,23.033,12.555,22.943a.928.928,0,0,0,.333-.705V5.335a.914.914,0,0,0-.911-.911H8.939l1.539-2.616H39.358C43.1,1.808,47.1,6.22,47.1,12.773c0,5.014-4.309,14.325-6.156,18.057A41,41,0,0,0,38.1,26.277C39.422,24.02,44.142,15.5,42.577,11a8.369,8.369,0,0,0-9.2-5.579.9.9,0,0,0-.769.9V22.238a.9.9,0,0,0,.282.654c.026.026.436.423,1.09,1.154a.832.832,0,0,0-.526.192l-8.977,7.438a.908.908,0,0,0-.231,1.116l6.54,12.517-4.232,11.67a.923.923,0,0,0,.539,1.167.862.862,0,0,0,.308.051.922.922,0,0,0,.859-.6l4.373-12.042a.909.909,0,0,0-.051-.731L26.2,32.6l8.413-6.976a.952.952,0,0,0,.295-.5C37.986,28.868,43.5,37.011,43.5,47.271Zm-9.08-25.444V7.182a6.44,6.44,0,0,1,6.425,4.437c1.1,3.155-2.026,9.708-3.937,13.107a34.792,34.792,0,0,0-2.488-2.847Z" transform="translate(4902 3426)" fill="#a5461b"/>
    <g id="Groupe_221" data-name="Groupe 221" transform="translate(4969.97 3450.494)">
      <g id="Groupe_8" data-name="Groupe 8" transform="translate(0 0)" clip-path="url(#clip-path)">
        <line id="Ligne_3" data-name="Ligne 3" x2="73.121" transform="translate(0 14.056)" fill="none" stroke="#10212a" stroke-miterlimit="10" stroke-width="2"/>
        <path id="Tracé_15" data-name="Tracé 15" d="M39.533.866,50.744,7.339l11.211,6.474L50.744,20.285,39.533,26.757" transform="translate(11.166 0.244)" fill="none" stroke="#10212a" stroke-miterlimit="10" stroke-width="2"/>
      </g>
    </g>
    <g id="Groupe_222" data-name="Groupe 222" transform="translate(5186.703 3450.494)">
      <g id="Groupe_8-2" data-name="Groupe 8" transform="translate(0 0)" clip-path="url(#clip-path)">
        <line id="Ligne_3-2" data-name="Ligne 3" x2="73.121" transform="translate(0 14.056)" fill="none" stroke="#10212a" stroke-miterlimit="10" stroke-width="2"/>
        <path id="Tracé_15-2" data-name="Tracé 15" d="M39.533.866,50.744,7.339l11.211,6.474L50.744,20.285,39.533,26.757" transform="translate(11.166 0.244)" fill="none" stroke="#10212a" stroke-miterlimit="10" stroke-width="2"/>
      </g>
    </g>
  </g>
</svg>
