<?xml version="1.0" encoding="UTF-8"?><svg id="Calque_2" xmlns="http://www.w3.org/2000/svg" viewBox="0 0 38.14 57.45"><defs><style>.cls-1{fill:#a5461b;}</style></defs><path class="cls-1" d="M38.14,9.97c0-5.4-3.42-9.97-7.46-9.97H7.77c-.25,0-.48,.13-.61,.35l-2.04,3.45c-.13,.22-.13,.49,0,.71,.13,.22,.36,.36,.62,.36h2.9v12.15C7.14,18.34,0,25.2,0,35.87s6.99,16.16,8.63,17.33v3.55c0,.39,.32,.71,.71,.71H26.13c.39,0,.71-.32,.71-.71v-3.2c1.69-1.09,8.49-6.14,8.49-16.66,0-4.31-1.15-8.13-2.61-11.25,.96-1.88,5.42-10.84,5.42-15.66Zm-4.22,26.92c0,10.88-8.04,15.6-8.12,15.64-.22,.13-.36,.36-.36,.61v2.89H10.05v-3.22c0-.24-.12-.47-.33-.6-.08-.05-8.31-5.44-8.31-16.35S9.71,17.96,9.79,17.89c.16-.13,.26-.34,.26-.55V4.16c0-.39-.32-.71-.71-.71h-2.37l1.2-2.04H30.69c2.92,0,6.04,3.44,6.04,8.55,0,3.91-3.36,11.17-4.8,14.08-.73-1.36-1.5-2.55-2.22-3.55,1.03-1.76,4.71-8.4,3.49-11.91-1.43-4.09-5.32-4.64-7.17-4.35-.35,.05-.6,.35-.6,.7v12.41c0,.19,.08,.38,.22,.51,.02,.02,.34,.33,.85,.9-.14,0-.29,.05-.41,.15l-7,5.8c-.26,.21-.33,.58-.18,.87l5.1,9.76-3.3,9.1c-.13,.37,.06,.77,.42,.91,.08,.03,.16,.04,.24,.04,.29,0,.56-.18,.67-.47l3.41-9.39c.07-.19,.05-.39-.04-.57l-4.98-9.53,6.56-5.44c.12-.1,.19-.24,.23-.39,2.4,2.92,6.7,9.27,6.7,17.27Zm-7.08-19.84V5.6c1.24,.02,3.93,.34,5.01,3.46,.86,2.46-1.58,7.57-3.07,10.22-.88-1.11-1.59-1.87-1.94-2.22Z"/></svg>