<?xml version="1.0" encoding="UTF-8"?><svg id="Calque_2" xmlns="http://www.w3.org/2000/svg" viewBox="0 0 39.9 57.44"><defs><style>.cls-1{fill:#a5461b;}</style></defs><path class="cls-1" d="M39.9,9.96c0-5.49-3.34-9.96-7.46-9.96H9.53c-.25,0-.48,.13-.61,.34l-2.04,3.46c-.13,.22-.13,.49-.01,.71,.13,.22,.36,.36,.62,.36h2.9v12.15c-1.49,1.31-8.63,8.17-8.63,18.84,0,.42,.01,.83,.04,1.23-.34,1.15-.85,2.18-1.52,3.08-.39,.53-.37,1.27,.07,1.77,.97,1.13,1.58,2.67,1.79,4.56,.08,.72,.69,1.26,1.41,1.26,.53,0,1-.29,1.25-.74,2.1,3.49,4.68,5.52,5.59,6.17v3.55c0,.39,.32,.7,.71,.7H27.89c.39,0,.71-.31,.71-.7v-3.2c1.69-1.09,8.49-6.15,8.49-16.66,0-4.31-1.14-8.13-2.61-11.25,.96-1.88,5.42-10.84,5.42-15.67ZM3.67,45.54c-.05,.26-.09,.53-.12,.8-.25-2.18-.95-3.96-2.13-5.33,.26-.34,.49-.7,.71-1.08,.35-.61,.64-1.25,.87-1.95,.08-.21,.14-.43,.2-.66,.01-.02,.02-.03,.02-.05h0c.02-.08,.04-.15,.06-.23,.11-.43,.2-.88,.27-1.35,.32,2.1,1.04,3.86,2.13,5.32-.38,.44-.71,.93-.98,1.46-.09,.16-.17,.33-.25,.5-.07,.16-.15,.32-.21,.49-.01,.02-.01,.03-.02,.05-.14,.36-.26,.75-.36,1.15-.03,.11-.06,.22-.08,.33,0,.03,0,.05-.02,.08-.03,.15-.07,.31-.09,.47Zm32.01-8.66c0,10.88-8.04,15.6-8.12,15.64-.22,.13-.36,.36-.36,.62v2.89H11.81v-3.22c0-.24-.13-.47-.33-.59-.05-.04-3.76-2.47-6.2-7.35,.3-1.16,.8-2.15,1.48-2.93,.43-.5,.46-1.24,.06-1.77-.97-1.3-1.59-2.88-1.87-4.69-.1-.7-.7-1.21-1.4-1.21-.11,0-.22,0-.32,.04,.72-10.07,8.23-16.35,8.32-16.42,.16-.14,.26-.34,.26-.55V4.16c0-.39-.32-.71-.71-.71h-2.37l1.2-2.04h22.51c2.92,0,6.04,3.44,6.04,8.55,0,3.92-3.36,11.18-4.79,14.09-.65-1.21-1.33-2.28-1.98-3.21,.38-.64,.82-1.24,1.3-1.79,.42-.48,.46-1.17,.12-1.69,1.29-2.74,2.64-6.45,1.82-8.78-1.42-4.09-5.31-4.63-7.17-4.35-.34,.05-.6,.35-.6,.7v1.29c-.46,.18-.81,.59-.88,1.11-.58,3.84-1.91,7.19-3.97,9.95-.4,.53-.37,1.27,.06,1.77,2.13,2.47,3.44,5.78,3.9,9.83,.08,.72,.69,1.26,1.41,1.26s1.33-.54,1.41-1.26c.28-2.5,.89-4.72,1.82-6.63,2.25,3.4,4.75,8.54,4.75,14.63Zm-3.49-20.89c-1.56-2.49-2.6-5.4-3.09-8.66-.05-.36-.24-.67-.5-.88v-.86c1.24,.02,3.93,.35,5.01,3.46,.57,1.64-.32,4.46-1.42,6.94Zm-3.59-4.52c.68,2.23,1.64,4.23,2.89,6.01,.13,.22,.29,.44,.45,.65-.74,.86-1.38,1.79-1.93,2.8-1.2,2.22-1.97,4.82-2.31,7.79-.49-4.34-1.9-7.88-4.24-10.59,1.71-2.28,2.96-4.94,3.72-8,.21-.83,.39-1.7,.52-2.59,.21,1.38,.51,2.69,.9,3.93Z"/></svg>