<svg width="36" height="32" viewBox="0 0 36 32" fill="none" xmlns="http://www.w3.org/2000/svg">
<path d="M32.4001 10.7999H28.5845L21.3831 0.512066C21.0033 -0.0316854 20.2522 -0.162397 19.7119 0.216619C19.1687 0.596979 19.0369 1.3451 19.4165 1.88778L25.6546 10.8H10.3447L16.5831 1.88778C16.9629 1.34509 16.8309 0.596985 16.2877 0.216619C15.7458 -0.162397 14.9969 -0.0311506 14.6165 0.512066L7.41512 10.7999H3.60001C1.61493 10.7999 0 12.4148 0 14.3999V16.7999C0 17.4626 0.53732 17.9999 1.2 17.9999H2.59872L4.38988 27.8529C4.73087 29.7298 6.49229 31.1998 8.39995 31.1998H27.6C29.5079 31.1998 31.2691 29.7298 31.609 27.8529L33.4007 17.9999H34.8C35.4632 17.9999 36 17.4626 36 16.7999V14.3999C36 12.4148 34.3851 10.7999 32.4 10.7999H32.4001ZM3.60009 13.1999H6.02231C6.02231 13.5778 6.17874 13.9499 6.51222 14.1832C6.72142 14.3297 6.96169 14.3999 7.19903 14.3999C7.57751 14.3999 7.94955 14.2217 8.18338 13.8877L8.66498 13.1999H27.3356L27.8172 13.8877C28.0503 14.2217 28.4229 14.3999 28.8014 14.3999C29.0393 14.3999 29.2795 14.3294 29.4882 14.1832C29.8222 13.9499 29.9781 13.5778 29.9781 13.1999H32.4003C33.0625 13.1999 33.6003 13.7383 33.6003 14.3999V15.5999H2.40028V14.3999C2.40028 13.7383 2.93868 13.1999 3.60028 13.1999H3.60009ZM29.2479 27.425C29.1156 28.1574 28.3458 28.8002 27.6003 28.8002H8.4003C7.65486 28.8002 6.88453 28.1574 6.75136 27.4246L5.03817 18.0001H30.9623L29.2479 27.425ZM16.8001 26.4002V20.4002C16.8001 19.7375 17.3374 19.2002 18.0001 19.2002C18.6628 19.2002 19.2001 19.7375 19.2001 20.4002V26.4002C19.2001 27.0629 18.6628 27.6002 18.0001 27.6002C17.3374 27.6002 16.8001 27.0629 16.8001 26.4002ZM10.8237 26.6357L9.62369 20.6357C9.49351 19.9858 9.91485 19.3537 10.5647 19.2235C11.2169 19.0928 11.8472 19.5152 11.9769 20.1645L13.1769 26.1645C13.307 26.8143 12.8857 27.4465 12.2359 27.5767C12.156 27.5928 12.077 27.6003 11.9991 27.6003C11.4387 27.6003 10.9373 27.206 10.8237 26.6357L10.8237 26.6357ZM22.8237 26.1648L24.0237 20.1648C24.1539 19.5144 24.7855 19.0925 25.4359 19.2238C26.0852 19.3539 26.507 19.9861 26.3769 20.6359L25.1769 26.6359C25.063 27.2059 24.5616 27.6002 24.0012 27.6002C23.9227 27.6002 23.8443 27.5927 23.7644 27.5766C23.1154 27.4467 22.6936 26.8146 22.8237 26.1647L22.8237 26.1648Z" fill="#A4451B"/>
</svg>
