<?xml version="1.0" encoding="UTF-8"?><svg id="Calque_2" xmlns="http://www.w3.org/2000/svg" viewBox="0 0 78.16 60.11"><defs><style>.cls-1{fill:#a5461b;}</style></defs><path class="cls-1" d="M78.1,27.11l-7.85-16.62c.05-.1,.07-.22,.06-.34-.02-.29-.22-.53-.5-.62L39.29,.03c-.14-.04-.29-.04-.42,0L8.63,9.53s-.01,0-.02,0c-.02,0-.03,.01-.04,.02-.06,.03-.12,.06-.17,.1-.02,.02-.04,.03-.05,.05-.05,.05-.09,.1-.12,.16,0,.01-.02,.02-.03,.03L.07,27.11c-.16,.34-.03,.75,.31,.93l7.76,4.16v10.81c0,.26,.14,.5,.37,.62l30.24,16.4c.11,.06,.22,.09,.34,.09s.23-.03,.34-.09l30.24-16.4c.23-.12,.37-.36,.37-.62v-10.81l7.76-4.16c.33-.18,.47-.59,.31-.93ZM39.08,1.45l28.61,8.9-28.61,14.12L10.73,10.35,39.08,1.45ZM9.55,32.95l19.93,10.68c.11,.06,.22,.08,.33,.08,.25,0,.49-.13,.62-.36l6.18-10.97c.19-.34,.07-.77-.27-.97-.34-.19-.77-.07-.97,.27l-5.84,10.37L1.64,27.11l7.53-15.94,29.2,14.54V58.21l-28.83-15.63v-9.63Zm39.08,9.1l-5.84-10.37c-.19-.34-.62-.46-.97-.27-.34,.19-.46,.62-.27,.97l6.18,10.97c.13,.23,.37,.36,.62,.36,.11,0,.23-.03,.33-.08l19.93-10.68v9.63l-28.83,15.63V25.7l29.25-14.43,7.48,15.84-27.89,14.95Z"/></svg>