<?xml version="1.0" encoding="UTF-8"?><svg id="Calque_2" xmlns="http://www.w3.org/2000/svg" viewBox="0 0 48.54 48.49"><defs><style>.cls-1{fill:none;stroke:#f7f6f4;stroke-miterlimit:10;}</style></defs><g id="szjZQd"><path class="cls-1" d="M11.32,.82c1.75,.7,2.99,2,4.08,3.47,1.55,2.09,2.81,4.34,3.86,6.72,.09,.21,.15,.44,.23,.65,.39,1.02,.13,1.91-.73,2.51-1,.7-2.07,1.3-3.14,1.9-.56,.31-1.18,.52-1.77,.8-1.48,.72-2.11,2.45-1.45,3.96,1.04,2.38,2.59,4.43,4.3,6.37,3.04,3.46,6.52,6.37,10.49,8.69,1.76,1.03,3.54,.62,4.61-1.14,.46-.76,.79-1.61,1.22-2.39,.5-.9,.99-1.8,1.58-2.64,.74-1.05,1.9-1.28,3.04-.67,2.46,1.33,4.68,3.02,6.8,4.84,1.21,1.03,2.44,2.05,3.25,3.47,.02,.03,.52,1.97-.59,3.56s-2.15,2.97-3.56,4.16c-1.45,1.23-3,2.29-4.91,2.69-.06,.01-2.79,.01-2.89,0-2.44-.51-4.7-1.52-6.89-2.66-10.62-5.48-18.86-13.41-24.63-23.89-1.44-2.62-2.78-5.29-3.41-8.24-.22-1.04-.1-2.19,0-2.68,.09-.42,.2-.84,.37-1.23C2.83,5.3,5.58,2.64,9.24,.92c.83-.39,2.02-.12,2.07-.1Z"/></g></svg>