<svg width="81" height="70" viewBox="0 0 81 70" fill="none" xmlns="http://www.w3.org/2000/svg">
<path fill-rule="evenodd" clip-rule="evenodd" d="M1.38359 8.1539C1.24281 8.15136 1.10711 8.20463 1.00691 8.30292C0.906719 8.40121 0.850281 8.53565 0.850281 8.67643C0.850281 8.81657 0.90672 8.95101 1.00691 9.04931C1.10711 9.1476 1.24281 9.2015 1.38359 9.19833H3.63979C3.77994 9.2015 3.91564 9.1476 4.01584 9.04931C4.11603 8.95102 4.17247 8.81658 4.17247 8.67643C4.17247 8.53565 4.11603 8.40122 4.01584 8.30292C3.91564 8.20462 3.77994 8.15136 3.63979 8.1539H1.38359Z" fill="black"/>
<path fill-rule="evenodd" clip-rule="evenodd" d="M9.77983 8.1539C9.63905 8.15136 9.50335 8.20463 9.40315 8.30292C9.30296 8.40121 9.24652 8.53565 9.24652 8.67643C9.24652 8.81657 9.30296 8.95101 9.40315 9.04931C9.50335 9.1476 9.63905 9.2015 9.77983 9.19833H26.2411C26.3812 9.2015 26.517 9.1476 26.6171 9.04931C26.7173 8.95102 26.7738 8.81658 26.7738 8.67643C26.7738 8.53565 26.7173 8.40122 26.6171 8.30292C26.517 8.20463 26.3813 8.15136 26.2411 8.1539H9.77983Z" fill="black"/>
<path fill-rule="evenodd" clip-rule="evenodd" d="M1.38359 0.567027C1.24281 0.563856 1.10711 0.617758 1.00691 0.71605C0.906719 0.814342 0.850281 0.94878 0.850281 1.08893C0.850281 1.22971 0.90672 1.36414 1.00691 1.46244C1.10711 1.56073 1.24281 1.61463 1.38359 1.61146H37.1179C37.258 1.61463 37.3937 1.56073 37.4939 1.46244C37.5947 1.36415 37.6512 1.22971 37.6512 1.08893C37.6512 0.948783 37.5947 0.814347 37.4939 0.71605C37.3937 0.617758 37.258 0.563856 37.1179 0.567027H1.38359Z" fill="black"/>
<path fill-rule="evenodd" clip-rule="evenodd" d="M58.8682 0.62101C58.085 0.629254 57.3095 0.8271 56.5847 1.2412C38.591 11.4274 20.6086 21.4542 2.58883 31.5355C0.271098 32.8608 -0.555213 35.8401 0.729545 38.1622L17.0415 67.247C18.3662 69.566 21.3764 70.393 23.6968 69.1076L77.6586 38.8133C79.982 37.5248 80.8026 34.5405 79.5185 32.2196L63.2066 3.10064C62.2972 1.50768 60.5926 0.600928 58.8672 0.619921L58.8682 0.62101ZM58.9005 1.66544C59.0356 1.66481 59.1574 1.6851 59.2918 1.69778L49.3086 37.3119C47.8329 42.4446 42.4656 45.5127 37.3024 44.0364L1.61031 34.0151C1.93942 33.3803 2.44991 32.8274 3.11132 32.4482C21.1051 22.3768 39.1037 12.3164 57.1072 2.15391C57.6957 1.81337 58.3337 1.66054 58.9019 1.66436L58.9005 1.66544ZM60.3362 1.95905C61.1315 2.27232 61.8392 2.82973 62.2939 3.62368L78.6058 32.7085C79.6128 34.5316 78.9552 36.8925 77.1378 37.899L23.176 68.1933C21.3553 69.1997 18.9995 68.5795 17.9558 66.7569C12.546 57.0464 7.08467 47.3411 1.64385 37.6396C1.18092 36.8007 1.09342 35.8779 1.28493 34.9953C13.2143 38.3924 25.1197 41.7616 37.0095 45.0497C42.7219 46.6813 48.689 43.281 50.3207 37.6067L60.3362 1.95905Z" fill="black"/>
</svg>
